<svg xmlns="http://www.w3.org/2000/svg" viewBox="0 0 1200 600" preserveAspectRatio="none">
  <rect width="1200" height="600" fill="#0b1220"/>
  <g stroke="#1e3a8a" stroke-width="1" opacity="0.35">
    <!-- grid -->
    <g>
      <path d="M0 80 H1200"/>
      <path d="M0 160 H1200"/>
      <path d="M0 240 H1200"/>
      <path d="M0 320 H1200"/>
      <path d="M0 400 H1200"/>
      <path d="M0 480 H1200"/>
    </g>
    <g>
      <path d="M100 0 V600"/>
      <path d="M300 0 V600"/>
      <path d="M500 0 V600"/>
      <path d="M700 0 V600"/>
      <path d="M900 0 V600"/>
      <path d="M1100 0 V600"/>
    </g>
  </g>
  <!-- simple circuit nodes -->
  <g fill="#60a5fa" opacity="0.45">
    <circle cx="180" cy="120" r="3"/>
    <circle cx="540" cy="180" r="3"/>
    <circle cx="900" cy="140" r="3"/>
    <circle cx="260" cy="360" r="3"/>
    <circle cx="820" cy="420" r="3"/>
    <circle cx="1080" cy="300" r="3"/>
  </g>
  <g stroke="#60a5fa" stroke-width="2" opacity="0.25">
    <path d="M180 120 L300 120 L300 240 L540 240"/>
    <path d="M540 180 L700 180 L700 320 L900 320"/>
    <path d="M260 360 L420 360 L420 220 L540 220"/>
    <path d="M900 140 L980 140 L980 280 L1080 280"/>
  </g>
</svg>

