<svg xmlns="http://www.w3.org/2000/svg" viewBox="0 0 64 64">
  <rect width="64" height="64" rx="12" fill="#0f172a"/>
  <path d="M32 10c8 0 12 3 12 10v8H26c-6 0-10 4-10 10v6c0 7 5 10 12 10h8c-8 0-12-3-12-10v-4h18c6 0 10-4 10-10v-6c0-7-5-10-12-10h-14z" fill="#3776AB"/>
  <circle cx="26" cy="16" r="2" fill="#fff"/>
  <path d="M32 54c-8 0-12-3-12-10v-8h18c6 0 10-4 10-10v-6c0-7-5-10-12-10h-8c8 0 12 3 12 10v4H22c-6 0-10 4-10 10v6c0 7 5 10 12 10h8z" fill="#FFD43B"/>
  <circle cx="38" cy="48" r="2" fill="#0f172a"/>
</svg>

