<svg xmlns="http://www.w3.org/2000/svg" viewBox="0 0 1200 600">
  <defs>
    <linearGradient id="bg2" x1="0" y1="0" x2="1" y2="1">
      <stop offset="0" stop-color="#0b1220"/>
      <stop offset="1" stop-color="#101b33"/>
    </linearGradient>
    <linearGradient id="accent2" x1="0" y1="0" x2="1" y2="0">
      <stop offset="0" stop-color="#3B82F6"/>
      <stop offset="1" stop-color="#8B5CF6"/>
    </linearGradient>
  </defs>
  <rect width="1200" height="600" rx="24" fill="url(#bg2)"/>
  <g fill="none" stroke="url(#accent2)" stroke-width="2" opacity="0.35">
    <circle cx="200" cy="480" r="80" />
    <circle cx="1000" cy="120" r="80" />
  </g>
  <g transform="translate(240,120)">
    <rect x="0" y="0" width="720" height="360" rx="18" fill="#0f172a" stroke="#1f2a44" />
    <rect x="30" y="30" width="660" height="40" rx="10" fill="#1f2937" />
    <rect x="30" y="90" width="300" height="220" rx="12" fill="#111f3a" stroke="#27406b" />
    <rect x="350" y="90" width="340" height="90" rx="12" fill="#111f3a" stroke="#27406b" />
    <rect x="350" y="190" width="160" height="120" rx="12" fill="#1e293b" stroke="#334155" />
    <rect x="530" y="190" width="160" height="120" rx="12" fill="#1e293b" stroke="#334155" />
    <text x="45" y="130" fill="#93c5fd" font-family="Inter, Arial" font-size="20">Patients</text>
    <text x="365" y="130" fill="#93c5fd" font-family="Inter, Arial" font-size="20">Consultations</text>
    <text x="365" y="230" fill="#cbd5e1" font-family="Inter, Arial" font-size="18">Rendez-vous</text>
    <text x="545" y="230" fill="#cbd5e1" font-family="Inter, Arial" font-size="18">Notifications</text>
  </g>
  <g transform="translate(980,420)">
    <rect x="-40" y="-40" width="120" height="120" rx="20" fill="#1f2937" stroke="#334155"/>
    <rect x="-20" y="-15" width="80" height="20" fill="#ef4444"/>
    <rect x="10" y="-45" width="20" height="80" fill="#ef4444"/>
  </g>
</svg>

