<svg xmlns="http://www.w3.org/2000/svg" viewBox="0 0 1200 600">
  <defs>
    <linearGradient id="bg" x1="0" y1="0" x2="1" y2="1">
      <stop offset="0" stop-color="#0b1220"/>
      <stop offset="1" stop-color="#101b33"/>
    </linearGradient>
    <linearGradient id="accent" x1="0" y1="0" x2="1" y2="0">
      <stop offset="0" stop-color="#3B82F6"/>
      <stop offset="1" stop-color="#8B5CF6"/>
    </linearGradient>
  </defs>
  <rect width="1200" height="600" rx="24" fill="url(#bg)"/>
  <g fill="none" stroke="url(#accent)" stroke-width="2" opacity="0.35">
    <circle cx="180" cy="120" r="80" />
    <circle cx="1040" cy="480" r="80" />
    <path d="M100 500 C 400 300, 800 700, 1100 400" />
  </g>
  <g transform="translate(300,150)">
    <rect x="0" y="0" width="600" height="300" rx="20" fill="#0f172a" stroke="#1f2a44" />
    <rect x="30" y="40" width="420" height="60" rx="12" fill="#111f3a" stroke="#27406b"/>
    <text x="50" y="78" fill="#cbd5e1" font-family="Inter, Arial" font-size="28">Bonjour, je peux vous aider à choisir un médicament ?</text>
    <rect x="150" y="130" width="380" height="56" rx="12" fill="#111f3a" stroke="#27406b"/>
    <text x="170" y="166" fill="#cbd5e1" font-family="Inter, Arial" font-size="24">Symptômes: fièvre, maux de tête</text>
    <rect x="30" y="210" width="520" height="60" rx="12" fill="#1e293b" stroke="#334155"/>
    <text x="50" y="248" fill="#93c5fd" font-family="Inter, Arial" font-size="26">Suggestion: Paracétamol 500mg (consultez un médecin)</text>
  </g>
  <g transform="translate(900,110)">
    <rect x="-40" y="-40" width="120" height="120" rx="20" fill="#1f2937" stroke="#334155"/>
    <rect x="-20" y="-15" width="80" height="20" fill="#ef4444"/>
    <rect x="10" y="-45" width="20" height="80" fill="#ef4444"/>
  </g>
</svg>

