<svg xmlns="http://www.w3.org/2000/svg" viewBox="0 0 1200 600">
  <defs>
    <linearGradient id="bg3" x1="0" y1="0" x2="1" y2="1">
      <stop offset="0" stop-color="#0b1220"/>
      <stop offset="1" stop-color="#101b33"/>
    </linearGradient>
    <linearGradient id="accent3" x1="0" y1="0" x2="1" y2="0">
      <stop offset="0" stop-color="#3B82F6"/>
      <stop offset="1" stop-color="#8B5CF6"/>
    </linearGradient>
  </defs>
  <rect width="1200" height="600" rx="24" fill="url(#bg3)"/>
  <g transform="translate(180,120)">
    <rect x="0" y="0" width="840" height="360" rx="18" fill="#0f172a" stroke="#1f2a44" />
    <text x="30" y="40" fill="#93c5fd" font-family="Inter, Arial" font-size="22">Satisfaction Étudiants</text>
    <rect x="30" y="60" width="240" height="240" rx="10" fill="#111f3a" stroke="#27406b" />
    <g fill="#3B82F6">
      <rect x="60" y="260" width="30" height="40"/>
      <rect x="110" y="220" width="30" height="80"/>
      <rect x="160" y="180" width="30" height="120"/>
      <rect x="210" y="120" width="30" height="180"/>
    </g>
    <rect x="300" y="60" width="510" height="240" rx="10" fill="#111f3a" stroke="#27406b" />
    <polyline points="330,260 370,230 410,240 450,200 490,210 530,170 570,180 610,140 640,150 680,120" fill="none" stroke="url(#accent3)" stroke-width="4"/>
  </g>
</svg>

